# xmcd
# Track frame offsets:
# 150
# 7135
# 25615
# 40650
# 54615
# 73422
# 94757
# 109825
# 128440
# 141840
# 156507
# 168965
# 179462
# 194192
#
# Disc length: 2877 seconds
# Revision: 0
# Processed by: cddbd v1.4PL0 Copyright (c) Steve Scherf et al.
# Submitted via: VisiTrax 2.9.7.197 - For more info visit www.synapsa.com
#
DISCID=c80b3b0e
DTITLE=Brother Montgomery, Little - Little Brother Montgomery - At Home
DYEAR=2000
DGENRE=Blues
TTITLE0=The Rocks
TTITLE1=Louisiana Blues
TTITLE2=Brother Red's Boogie
TTITLE3=Without You Sweetheart
TTITLE4=Suitcase Blues
TTITLE5=Jan
TTITLE6=Pinetop's Boogie Woogie
TTITLE7=Hard, Oh Lord!
TTITLE8=I'm Gonna Build My Bed In The Bottom Of The Deep Blue Sea
TTITLE9=Yankee Doodle Blues
TTITLE10=I'm Going Back To Tennessee
TTITLE11=No Special Rider Blues
TTITLE12=Mini Skirt Blues
TTITLE13=Do You Know What It Means To Miss New Orleans?
EXTD=Earwig, 4918CD
EXTT0=
EXTT1=
EXTT2=
EXTT3=
EXTT4=
EXTT5=
EXTT6=
EXTT7=
EXTT8=
EXTT9=
EXTT10=
EXTT11=
EXTT12=
EXTT13=
PLAYORDER=
